Coordinates
version=1
nRows=49
nColumns=12
inDegrees=yes

Units are S.I. units (second, meters, Newtons, ...)
Angles are in degrees

endheader
time	SC_y	SC_z	SC_x	AC_y	AC_z	AC_x	GH_y	GH_z	GH_yy	EL_x	PS_y
       0.0              -17.27          32.52          12.32           40.4           1.82         -13.57          162.7          3.194         -174.6          62.49          96.46
   0.02314              -17.27          32.52          12.32           40.4          1.817         -13.57          162.6          3.203         -174.6          62.49          96.45
   0.04627              -17.27          32.52          12.32          40.41          1.815         -13.57          162.6          3.214         -174.6          62.49          96.45
   0.06941              -17.27          32.52          12.32          40.41          1.812         -13.57          162.5          3.225         -174.6          62.49          96.45
   0.09254              -17.27          32.52          12.32          40.41          1.809         -13.57          162.5          3.237         -174.5          62.49          96.45
    0.1157              -17.27          32.52          12.32          40.41          1.806         -13.56          162.4           3.25         -174.5          62.48          96.45
    0.1388              -17.28          32.52          12.32          40.41          1.802         -13.56          162.3          3.263         -174.5          62.48          96.44
    0.1619              -17.28          32.51          12.32          40.41          1.799         -13.56          162.3          3.277         -174.4          62.48          96.44
    0.1851              -17.28          32.51          12.31          40.41          1.795         -13.56          162.2          3.293         -174.4          62.48          96.44
    0.2082              -17.28          32.51          12.31          40.42           1.79         -13.55          162.1          3.309         -174.4          62.48          96.43
    0.2314              -17.28          32.51          12.31          40.42          1.786         -13.55          162.1          3.327         -174.3          62.48          96.43
    0.2545              -17.28          32.51          12.31          40.42          1.781         -13.55          162.0          3.346         -174.3          62.47          96.43
    0.2776              -17.28          32.51          12.31          40.42          1.776         -13.54          161.9          3.367         -174.3          62.47          96.42
    0.3008              -17.29           32.5          12.31          40.43           1.77         -13.54          161.8          3.389         -174.2          62.47          96.42
    0.3239              -17.29           32.5          12.31          40.43          1.764         -13.54          161.7          3.413         -174.2          62.47          96.42
     0.347              -17.29           32.5          12.31          40.43          1.757         -13.53          161.5           3.44         -174.1          62.46          96.41
    0.3702              -17.29           32.5           12.3          40.43           1.75         -13.53          161.4          3.468         -174.0          62.46          96.41
    0.3933              -17.29          32.49           12.3          40.44          1.742         -13.52          161.3          3.499         -174.0          62.46           96.4
    0.4164               -17.3          32.49           12.3          40.44          1.734         -13.52          161.1          3.533         -173.9          62.45          96.39
    0.4396               -17.3          32.49           12.3          40.45          1.724         -13.51          161.0           3.57         -173.8          62.45          96.39
    0.4627               -17.3          32.48           12.3          40.45          1.714          -13.5          160.8          3.611         -173.7          62.44          96.38
    0.4858              -17.31          32.48          12.29          40.45          1.702          -13.5          160.6          3.655         -173.6          62.44          96.37
     0.509              -17.31          32.47          12.29          40.46           1.69         -13.49          160.4          3.705         -173.5          62.43          96.36
    0.5321              -17.32          32.47          12.29          40.47          1.676         -13.48          160.1           3.76         -173.4          62.42          96.35
    0.5552              -17.32          32.46          12.28          40.47           1.66         -13.47          159.8          3.821         -173.3          62.42          96.34
    0.5784              -17.33          32.46          12.28          40.48          1.643         -13.46          159.5          3.889         -173.2          62.41          96.33
    0.6015              -17.33          32.45          12.27          40.49          1.624         -13.45          159.2          3.965         -173.0           62.4          96.31
    0.6246              -17.34          32.44          12.27           40.5          1.602         -13.43          158.8           4.05         -172.8          62.39           96.3
    0.6478              -17.35          32.43          12.26          40.51          1.577         -13.42          158.4          4.147         -172.6          62.38          96.28
    0.6709              -17.35          32.42          12.26          40.52           1.55          -13.4          157.9          4.257         -172.4          62.37          96.26
    0.6941              -17.36          32.41          12.25          40.54          1.518         -13.38          157.3          4.383         -172.1          62.35          96.24
    0.7172              -17.38          32.39          12.24          40.55          1.481         -13.36          156.7          4.526         -171.8          62.34          96.21
    0.7403              -17.39          32.38          12.23          40.57          1.439         -13.33          155.9          4.693         -171.5          62.32          96.18
    0.7635              -17.41          32.36          12.22          40.59           1.39          -13.3          155.0          4.886         -171.0          62.29          96.15
    0.7866              -17.42          32.34           12.2          40.62          1.332         -13.26          154.0          5.112         -170.6          62.27           96.1
    0.8097              -17.44          32.31          12.19          40.65          1.265         -13.22          152.8          5.378         -170.0          62.24          96.05
    0.8329              -17.47          32.28          12.17          40.68          1.184         -13.17          151.4          5.695         -169.3           62.2           96.0
     0.856               -17.5          32.25          12.15          40.72          1.088         -13.11          149.7          6.074         -168.5          62.15          95.93
    0.8791              -17.54           32.2          12.12          40.77         0.9711         -13.03          147.6          6.533         -167.6           62.1          95.84
    0.9023              -17.58          32.15          12.09          40.84         0.8286         -12.94          145.1          7.094         -166.4          62.03          95.74
    0.9254              -17.64          32.08          12.04          40.91         0.6527         -12.83          142.0          7.786         -164.9          61.95          95.61
    0.9485              -17.71           32.0          11.99          41.01         0.4334         -12.69          138.1          8.649         -163.1          61.85          95.45
    0.9717              -17.79          31.89          11.93          41.13         0.1571         -12.52          133.2          9.736         -160.8          61.73          95.25
    0.9948               -17.9          31.76          11.84          41.28        -0.1941         -12.29          127.0          11.12         -157.9          61.56           95.0
     1.018              -18.05          31.59          11.74          41.48        -0.6437         -12.01          119.0          12.89         -154.2          61.36          94.68
     1.041              -18.23          31.37           11.6          41.73         -1.221         -11.64          108.8          15.16         -149.4          61.09          94.26
     1.064              -18.46          31.09          11.42          42.05         -1.958         -11.17          95.79          18.06         -143.3          60.75          93.73
     1.087              -18.75          30.74           11.2          42.46         -2.884         -10.58          79.39           21.7         -135.6          60.33          93.06
      1.11              -19.11          30.32          10.94          42.95         -4.013         -9.864           59.4          26.15         -126.2          59.81          92.24
